<?xml version="1.0" encoding="utf-8"?>
<!-- Generator: Adobe Illustrator 24.3.0, SVG Export Plug-In . SVG Version: 6.00 Build 0)  -->
<svg version="1.1" id="レイヤー_1" xmlns="http://www.w3.org/2000/svg" xmlns:xlink="http://www.w3.org/1999/xlink" x="0px"
	 y="0px" viewBox="0 0 56 56" style="enable-background:new 0 0 56 56;" xml:space="preserve">
<g>
	<path d="M22.9,12.2v28.2c0,3.6,0.3,3.9,4.8,3.9V46H13v-1.7c4.5,0,4.8-0.4,4.8-3.9V12.2H12c-3,0-3.4,0.3-4.5,6.1H5.4L6.6,10h27.6
		l1.2,8.4h-2.1c-1.2-5.9-1.6-6.1-4.6-6.1C28.6,12.2,22.9,12.2,22.9,12.2z"/>
	<polygon points="47.3,14.8 50.6,14.8 45.6,8 40.6,14.8 44,14.8 44,41.2 40.6,41.2 45.6,48 50.6,41.2 47.3,41.2 	"/>
</g>
</svg>
