<?xml version="1.0" encoding="utf-8"?>
<!-- Generator: Adobe Illustrator 24.3.0, SVG Export Plug-In . SVG Version: 6.00 Build 0)  -->
<svg version="1.1" id="レイヤー_2_1_" xmlns="http://www.w3.org/2000/svg" xmlns:xlink="http://www.w3.org/1999/xlink" x="0px"
	 y="0px" viewBox="0 0 48 48" style="enable-background:new 0 0 48 48;" xml:space="preserve">
<g>
	<path d="M35,35H13V13h22V35z M15,33h18V15H15V33z"/>
	<polygon points="11,35 1,35 1,33 9,33 9,15 1,15 1,13 11,13 	"/>
	<polygon points="47,35 37,35 37,13 47,13 47,15 39,15 39,33 47,33 	"/>
</g>
<g>
	<path d="M21.1,21.5c0.8,0,1.5-0.7,1.5-1.5c0-0.8-0.7-1.5-1.5-1.5c-0.8,0-1.5,0.7-1.5,1.5C19.6,20.8,20.3,21.5,21.1,21.5z"/>
	<path d="M25.8,20.6c-0.4,0-0.7,0.4-1,0.7l-2.2,3.4c-0.2,0.3-0.5,0.7-0.8,0.7c-0.3,0-0.6-0.4-0.8-0.7c-0.2-0.3-0.6-0.7-1-0.7
		c-0.4,0-0.8,0.4-1,0.7l-2.7,4.8h15.5l-5-8.2C26.5,21,26.1,20.6,25.8,20.6z"/>
</g>
</svg>
