<?xml version="1.0" encoding="utf-8"?>
<!-- Generator: Adobe Illustrator 24.3.0, SVG Export Plug-In . SVG Version: 6.00 Build 0)  -->
<svg version="1.1" id="レイヤー_2_1_" xmlns="http://www.w3.org/2000/svg" xmlns:xlink="http://www.w3.org/1999/xlink" x="0px"
	 y="0px" viewBox="0 0 48 48" style="enable-background:new 0 0 48 48;" xml:space="preserve">
<g>
	<polygon points="8,35 1,35 1,33 6,33 6,15 1,15 1,13 8,13 	"/>
	<polygon points="47,35 40,35 40,13 47,13 47,15 42,15 42,33 47,33 	"/>
</g>
<path d="M19,25L19,25c-2.2,0-4-1.8-4-4v0c0-2.2,1.8-4,4-4h0c2.2,0,4,1.8,4,4v0C23,23.2,21.2,25,19,25z"/>
<path d="M32.2,20.2h-6.5c-0.4,0-0.8-0.3-0.8-0.8l0,0c0-0.4,0.3-0.8,0.8-0.8h6.5c0.4,0,0.8,0.3,0.8,0.8l0,0
	C33,19.9,32.7,20.2,32.2,20.2z"/>
<path d="M32.2,23.2h-6.5c-0.4,0-0.8-0.3-0.8-0.8l0,0c0-0.4,0.3-0.8,0.8-0.8h6.5c0.4,0,0.8,0.3,0.8,0.8l0,0
	C33,22.9,32.7,23.2,32.2,23.2z"/>
<path d="M32.2,28H15.7c-0.4,0-0.7-0.3-0.7-0.8l0,0c0-0.4,0.3-0.8,0.7-0.8h16.5c0.4,0,0.8,0.3,0.8,0.8l0,0C33,27.7,32.7,28,32.2,28z"
	/>
<path d="M32.2,31H15.7c-0.4,0-0.7-0.3-0.7-0.8l0,0c0-0.4,0.3-0.8,0.7-0.8h16.5c0.4,0,0.8,0.3,0.8,0.8l0,0C33,30.7,32.7,31,32.2,31z"
	/>
<path d="M38,35H10V13h28V35z M12,33h24V15H12V33z"/>
</svg>
