<?xml version="1.0" encoding="utf-8"?>
<!-- Generator: Adobe Illustrator 24.3.0, SVG Export Plug-In . SVG Version: 6.00 Build 0)  -->
<svg version="1.1" id="レイヤー_2_1_" xmlns="http://www.w3.org/2000/svg" xmlns:xlink="http://www.w3.org/1999/xlink" x="0px"
	 y="0px" viewBox="0 0 40 40" style="enable-background:new 0 0 40 40;" xml:space="preserve">
<path d="M37.7,33l-13-13l13-12.9c0.2-0.2,0.2-0.5,0-0.7l-4-4c-0.2-0.2-0.5-0.2-0.7,0L20,15.3L7.1,2.3c-0.2-0.2-0.5-0.2-0.7,0l-4,4
	C2.2,6.5,2.2,6.9,2.3,7l13,13l-13,13c-0.2,0.2-0.2,0.5,0,0.7l4,4c0.2,0.2,0.5,0.2,0.7,0l12.9-13l13,13c0.2,0.2,0.5,0.2,0.7,0l4-4
	C37.8,33.5,37.8,33.2,37.7,33z"/>
</svg>
