<?xml version="1.0" encoding="utf-8"?>
<!-- Generator: Adobe Illustrator 24.3.0, SVG Export Plug-In . SVG Version: 6.00 Build 0)  -->
<svg version="1.1" id="レイヤー_2_1_" xmlns="http://www.w3.org/2000/svg" xmlns:xlink="http://www.w3.org/1999/xlink" x="0px"
	 y="0px" viewBox="0 0 56 56" style="enable-background:new 0 0 56 56;" xml:space="preserve">
<path d="M34,17V8.5C34,8.2,33.8,8,33.5,8h-30C3.2,8,3,8.2,3,8.5V17v3v27.5C3,47.8,3.2,48,3.5,48h49c0.3,0,0.5-0.2,0.5-0.5v-30
	c0-0.3-0.2-0.5-0.5-0.5H34z M20.5,11h10c0.3,0,0.5,0.2,0.5,0.5v5c0,0.3-0.2,0.5-0.5,0.5h-10c-0.3,0-0.5-0.2-0.5-0.5v-5
	C20,11.2,20.2,11,20.5,11z M6.5,11h10c0.3,0,0.5,0.2,0.5,0.5v5c0,0.3-0.2,0.5-0.5,0.5h-10C6.2,17,6,16.8,6,16.5v-5
	C6,11.2,6.2,11,6.5,11z M49.5,45h-43C6.2,45,6,44.8,6,44.5v-24C6,20.2,6.2,20,6.5,20h43c0.3,0,0.5,0.2,0.5,0.5v24
	C50,44.8,49.8,45,49.5,45z"/>
</svg>
