<?xml version="1.0" encoding="utf-8"?>
<!-- Generator: Adobe Illustrator 24.3.0, SVG Export Plug-In . SVG Version: 6.00 Build 0)  -->
<svg version="1.1" id="レイヤー_2" xmlns="http://www.w3.org/2000/svg" xmlns:xlink="http://www.w3.org/1999/xlink" x="0px"
	 y="0px" viewBox="0 0 56 56" style="enable-background:new 0 0 56 56;" xml:space="preserve">
<path d="M47.5,50.3H8.5c-0.3,0-0.5-0.2-0.5-0.5V6.1c0-0.3,0.2-0.5,0.5-0.5h39.1c0.3,0,0.5,0.2,0.5,0.5v43.7
	C48,50.1,47.8,50.3,47.5,50.3z M11.3,47.5h33.5c0.3,0,0.5-0.2,0.5-0.5V8.9c0-0.3-0.2-0.5-0.5-0.5H11.3c-0.3,0-0.5,0.2-0.5,0.5v38.1
	C10.8,47.3,11,47.5,11.3,47.5z"/>
</svg>
