<?xml version="1.0" encoding="utf-8"?>
<!-- Generator: Adobe Illustrator 24.3.0, SVG Export Plug-In . SVG Version: 6.00 Build 0)  -->
<svg version="1.1" xmlns="http://www.w3.org/2000/svg" xmlns:xlink="http://www.w3.org/1999/xlink" x="0px" y="0px"
	 viewBox="0 0 56 56" style="enable-background:new 0 0 56 56;" xml:space="preserve">
<style type="text/css">
	.st0{display:none;}
	.st1{display:inline;fill:none;stroke:#000000;stroke-width:2;stroke-miterlimit:10;}
	.st2{display:inline;}
</style>
<g id="レイヤー_1">
	<path d="M52.5,7.8h-49c-0.4,0-0.8,0.3-0.8,0.8v39c0,0.4,0.3,0.8,0.8,0.8h49c0.4,0,0.8-0.3,0.8-0.8v-39C53.2,8.1,52.9,7.8,52.5,7.8z
		 M29.2,30.5c0-0.1,0.1-0.2,0.2-0.2h21c0.1,0,0.2,0.1,0.2,0.2v15c0,0.1-0.1,0.2-0.2,0.2h-21c-0.1,0-0.2-0.1-0.2-0.2V30.5z
		 M37.2,27.5v-17c0-0.1,0.1-0.2,0.2-0.2h13c0.1,0,0.2,0.1,0.2,0.2v17c0,0.1-0.1,0.2-0.2,0.2h-13C37.4,27.8,37.2,27.6,37.2,27.5z
		 M34.5,27.8h-13c-0.1,0-0.2-0.1-0.2-0.2v-17c0-0.1,0.1-0.2,0.2-0.2h13c0.1,0,0.2,0.1,0.2,0.2v17C34.8,27.6,34.6,27.8,34.5,27.8z
		 M18.8,27.5c0,0.1-0.1,0.2-0.2,0.2h-13c-0.1,0-0.2-0.1-0.2-0.2v-17c0-0.1,0.1-0.2,0.2-0.2h13c0.1,0,0.2,0.1,0.2,0.2V27.5z
		 M5.2,30.5c0-0.1,0.1-0.2,0.2-0.2h21c0.1,0,0.2,0.1,0.2,0.2v15c0,0.1-0.1,0.2-0.2,0.2h-21c-0.1,0-0.2-0.1-0.2-0.2V30.5z"/>
</g>
<g id="レイヤー_2" class="st0">
	<rect x="63.1" y="9" class="st1" width="16" height="20"/>
	<rect x="79.1" y="9" class="st1" width="16" height="20"/>
	<rect x="95.1" y="9" class="st1" width="16" height="20"/>
	<rect x="63.1" y="29" class="st1" width="24" height="18"/>
	<rect x="87.1" y="29" class="st1" width="24" height="18"/>
	<path class="st2" d="M63.6,54.9c-0.3,0-0.5,0.2-0.5,0.5v39c0,0.3,0.2,0.5,0.5,0.5h49c0.3,0,0.5-0.2,0.5-0.5v-39
		c0-0.3-0.2-0.5-0.5-0.5H63.6z M81.6,56.9h13c0.3,0,0.5,0.2,0.5,0.5v17c0,0.3-0.2,0.5-0.5,0.5h-13c-0.3,0-0.5-0.2-0.5-0.5v-17
		C81.1,57.1,81.3,56.9,81.6,56.9z M65.6,56.9h13c0.3,0,0.5,0.2,0.5,0.5v17c0,0.3-0.2,0.5-0.5,0.5h-13c-0.3,0-0.5-0.2-0.5-0.5v-17
		C65.1,57.1,65.3,56.9,65.6,56.9z M86.6,92.9h-21c-0.3,0-0.5-0.2-0.5-0.5v-15c0-0.3,0.2-0.5,0.5-0.5h21c0.3,0,0.5,0.2,0.5,0.5v15
		C87.1,92.7,86.9,92.9,86.6,92.9z M110.6,92.9h-21c-0.3,0-0.5-0.2-0.5-0.5v-15c0-0.3,0.2-0.5,0.5-0.5h21c0.3,0,0.5,0.2,0.5,0.5v15
		C111.1,92.7,110.9,92.9,110.6,92.9z M97.1,74.4v-17c0-0.3,0.2-0.5,0.5-0.5h13c0.3,0,0.5,0.2,0.5,0.5v17c0,0.3-0.2,0.5-0.5,0.5h-13
		C97.3,74.9,97.1,74.7,97.1,74.4z"/>
</g>
</svg>
