<?xml version="1.0" encoding="utf-8"?>
<!-- Generator: Adobe Illustrator 24.3.0, SVG Export Plug-In . SVG Version: 6.00 Build 0)  -->
<svg version="1.1" id="レイヤー_2_1_" xmlns="http://www.w3.org/2000/svg" xmlns:xlink="http://www.w3.org/1999/xlink" x="0px"
	 y="0px" viewBox="0 0 56 56" style="enable-background:new 0 0 56 56;" xml:space="preserve">
<path d="M50.4,46H5.5C5.2,46,5,45.8,5,45.5v-35C5,10.2,5.2,10,5.5,10h45c0.3,0,0.5,0.2,0.5,0.5v35C50.9,45.8,50.7,46,50.4,46z
	 M8.4,43.1h39.3c0.3,0,0.5-0.2,0.5-0.5V13.4c0-0.3-0.2-0.5-0.5-0.5H8.4c-0.3,0-0.5,0.2-0.5,0.5v29.2C7.9,42.9,8.1,43.1,8.4,43.1z"/>
<path d="M41.5,33h-27c-0.3,0-0.5-0.2-0.5-0.5v-1c0-0.3,0.2-0.5,0.5-0.5h27c0.3,0,0.5,0.2,0.5,0.5v1C42,32.8,41.8,33,41.5,33z"/>
<path d="M41.5,25h-27c-0.3,0-0.5-0.2-0.5-0.5v-1c0-0.3,0.2-0.5,0.5-0.5h27c0.3,0,0.5,0.2,0.5,0.5v1C42,24.8,41.8,25,41.5,25z"/>
</svg>
